<mxfile host="www.draw.io" modified="2020-02-14T00:50:38.306Z" agent="Mozilla/5.0 (Macintosh; Intel Mac OS X 10_14_5) AppleWebKit/537.36 (KHTML, like Gecko) Chrome/79.0.3945.130 Safari/537.36" etag="OJYetEcHJuK5--cF49dS" version="12.7.0" type="github">
  <diagram id="YeMggVaUzyxCRvWMWyXO" name="Page-1">
    <mxGraphModel dx="1411" dy="863" grid="1" gridSize="10" guides="1" tooltips="1" connect="1" arrows="1" fold="1" page="1" pageScale="1" pageWidth="2339" pageHeight="3300" math="0" shadow="0">
      <root>
        <mxCell id="0"/>
        <mxCell id="1" parent="0"/>
        <mxCell id="BMTH4_5w9j21CkbTTb-A-1" value="" style="whiteSpace=wrap;html=1;aspect=fixed;" vertex="1" parent="1">
          <mxGeometry x="420" y="110" width="50" height="50" as="geometry"/>
        </mxCell>
        <mxCell id="BMTH4_5w9j21CkbTTb-A-2" value="" style="whiteSpace=wrap;html=1;aspect=fixed;" vertex="1" parent="1">
          <mxGeometry x="160" y="110" width="50" height="50" as="geometry"/>
        </mxCell>
        <mxCell id="BMTH4_5w9j21CkbTTb-A-3" value="" style="whiteSpace=wrap;html=1;aspect=fixed;" vertex="1" parent="1">
          <mxGeometry x="240" y="110" width="50" height="50" as="geometry"/>
        </mxCell>
        <mxCell id="BMTH4_5w9j21CkbTTb-A-9" value="" style="endArrow=classic;html=1;entryX=0;entryY=0.5;entryDx=0;entryDy=0;" edge="1" parent="1" target="BMTH4_5w9j21CkbTTb-A-3">
          <mxGeometry width="50" height="50" relative="1" as="geometry">
            <mxPoint x="190" y="135" as="sourcePoint"/>
            <mxPoint x="160" y="180" as="targetPoint"/>
          </mxGeometry>
        </mxCell>
        <mxCell id="BMTH4_5w9j21CkbTTb-A-11" value="" style="whiteSpace=wrap;html=1;aspect=fixed;" vertex="1" parent="1">
          <mxGeometry x="290" y="110" width="50" height="50" as="geometry"/>
        </mxCell>
        <mxCell id="BMTH4_5w9j21CkbTTb-A-12" value="" style="whiteSpace=wrap;html=1;aspect=fixed;" vertex="1" parent="1">
          <mxGeometry x="370" y="110" width="50" height="50" as="geometry"/>
        </mxCell>
        <mxCell id="BMTH4_5w9j21CkbTTb-A-13" value="" style="endArrow=classic;html=1;entryX=0;entryY=0.5;entryDx=0;entryDy=0;" edge="1" parent="1" target="BMTH4_5w9j21CkbTTb-A-12">
          <mxGeometry width="50" height="50" relative="1" as="geometry">
            <mxPoint x="320" y="135" as="sourcePoint"/>
            <mxPoint x="290" y="180" as="targetPoint"/>
          </mxGeometry>
        </mxCell>
        <mxCell id="BMTH4_5w9j21CkbTTb-A-14" value="&lt;font style=&quot;font-size: 23px&quot;&gt;A&lt;/font&gt;" style="text;html=1;strokeColor=none;fillColor=none;align=center;verticalAlign=middle;whiteSpace=wrap;rounded=0;" vertex="1" parent="1">
          <mxGeometry x="120" y="125" width="40" height="20" as="geometry"/>
        </mxCell>
        <mxCell id="BMTH4_5w9j21CkbTTb-A-16" value="&lt;font style=&quot;font-size: 23px&quot;&gt;B&lt;/font&gt;" style="text;html=1;strokeColor=none;fillColor=none;align=center;verticalAlign=middle;whiteSpace=wrap;rounded=0;" vertex="1" parent="1">
          <mxGeometry x="245" y="125" width="40" height="20" as="geometry"/>
        </mxCell>
        <mxCell id="BMTH4_5w9j21CkbTTb-A-17" value="&lt;font style=&quot;font-size: 23px&quot;&gt;F&lt;/font&gt;" style="text;html=1;strokeColor=none;fillColor=none;align=center;verticalAlign=middle;whiteSpace=wrap;rounded=0;" vertex="1" parent="1">
          <mxGeometry x="375" y="125" width="40" height="20" as="geometry"/>
        </mxCell>
        <mxCell id="BMTH4_5w9j21CkbTTb-A-18" value="" style="endArrow=none;html=1;" edge="1" parent="1">
          <mxGeometry width="50" height="50" relative="1" as="geometry">
            <mxPoint x="430" y="150" as="sourcePoint"/>
            <mxPoint x="460" y="120" as="targetPoint"/>
          </mxGeometry>
        </mxCell>
        <mxCell id="BMTH4_5w9j21CkbTTb-A-19" value="" style="whiteSpace=wrap;html=1;aspect=fixed;" vertex="1" parent="1">
          <mxGeometry x="420" y="190" width="50" height="50" as="geometry"/>
        </mxCell>
        <mxCell id="BMTH4_5w9j21CkbTTb-A-20" value="" style="whiteSpace=wrap;html=1;aspect=fixed;" vertex="1" parent="1">
          <mxGeometry x="160" y="190" width="50" height="50" as="geometry"/>
        </mxCell>
        <mxCell id="BMTH4_5w9j21CkbTTb-A-21" value="" style="whiteSpace=wrap;html=1;aspect=fixed;" vertex="1" parent="1">
          <mxGeometry x="240" y="190" width="50" height="50" as="geometry"/>
        </mxCell>
        <mxCell id="BMTH4_5w9j21CkbTTb-A-22" value="" style="endArrow=classic;html=1;entryX=0;entryY=0.5;entryDx=0;entryDy=0;" edge="1" parent="1" target="BMTH4_5w9j21CkbTTb-A-21">
          <mxGeometry width="50" height="50" relative="1" as="geometry">
            <mxPoint x="190" y="215" as="sourcePoint"/>
            <mxPoint x="160" y="260" as="targetPoint"/>
          </mxGeometry>
        </mxCell>
        <mxCell id="BMTH4_5w9j21CkbTTb-A-23" value="" style="whiteSpace=wrap;html=1;aspect=fixed;" vertex="1" parent="1">
          <mxGeometry x="290" y="190" width="50" height="50" as="geometry"/>
        </mxCell>
        <mxCell id="BMTH4_5w9j21CkbTTb-A-24" value="" style="whiteSpace=wrap;html=1;aspect=fixed;" vertex="1" parent="1">
          <mxGeometry x="370" y="190" width="50" height="50" as="geometry"/>
        </mxCell>
        <mxCell id="BMTH4_5w9j21CkbTTb-A-25" value="" style="endArrow=classic;html=1;entryX=0;entryY=0.5;entryDx=0;entryDy=0;" edge="1" parent="1" target="BMTH4_5w9j21CkbTTb-A-24">
          <mxGeometry width="50" height="50" relative="1" as="geometry">
            <mxPoint x="320" y="215" as="sourcePoint"/>
            <mxPoint x="290" y="260" as="targetPoint"/>
          </mxGeometry>
        </mxCell>
        <mxCell id="BMTH4_5w9j21CkbTTb-A-26" value="&lt;font style=&quot;font-size: 23px&quot;&gt;B&lt;/font&gt;" style="text;html=1;strokeColor=none;fillColor=none;align=center;verticalAlign=middle;whiteSpace=wrap;rounded=0;" vertex="1" parent="1">
          <mxGeometry x="120" y="205" width="40" height="20" as="geometry"/>
        </mxCell>
        <mxCell id="BMTH4_5w9j21CkbTTb-A-27" value="&lt;font style=&quot;font-size: 23px&quot;&gt;C&lt;/font&gt;" style="text;html=1;strokeColor=none;fillColor=none;align=center;verticalAlign=middle;whiteSpace=wrap;rounded=0;" vertex="1" parent="1">
          <mxGeometry x="245" y="205" width="40" height="20" as="geometry"/>
        </mxCell>
        <mxCell id="BMTH4_5w9j21CkbTTb-A-28" value="&lt;font style=&quot;font-size: 23px&quot;&gt;D&lt;/font&gt;" style="text;html=1;strokeColor=none;fillColor=none;align=center;verticalAlign=middle;whiteSpace=wrap;rounded=0;" vertex="1" parent="1">
          <mxGeometry x="375" y="205" width="40" height="20" as="geometry"/>
        </mxCell>
        <mxCell id="BMTH4_5w9j21CkbTTb-A-29" value="" style="endArrow=none;html=1;" edge="1" parent="1">
          <mxGeometry width="50" height="50" relative="1" as="geometry">
            <mxPoint x="430" y="230" as="sourcePoint"/>
            <mxPoint x="460" y="200" as="targetPoint"/>
          </mxGeometry>
        </mxCell>
        <mxCell id="BMTH4_5w9j21CkbTTb-A-30" value="" style="whiteSpace=wrap;html=1;aspect=fixed;" vertex="1" parent="1">
          <mxGeometry x="160" y="270" width="50" height="50" as="geometry"/>
        </mxCell>
        <mxCell id="BMTH4_5w9j21CkbTTb-A-31" value="&lt;font style=&quot;font-size: 23px&quot;&gt;C&lt;/font&gt;" style="text;html=1;strokeColor=none;fillColor=none;align=center;verticalAlign=middle;whiteSpace=wrap;rounded=0;" vertex="1" parent="1">
          <mxGeometry x="120" y="285" width="40" height="20" as="geometry"/>
        </mxCell>
        <mxCell id="BMTH4_5w9j21CkbTTb-A-33" value="" style="whiteSpace=wrap;html=1;aspect=fixed;" vertex="1" parent="1">
          <mxGeometry x="290" y="350" width="50" height="50" as="geometry"/>
        </mxCell>
        <mxCell id="BMTH4_5w9j21CkbTTb-A-34" value="" style="whiteSpace=wrap;html=1;aspect=fixed;" vertex="1" parent="1">
          <mxGeometry x="160" y="350" width="50" height="50" as="geometry"/>
        </mxCell>
        <mxCell id="BMTH4_5w9j21CkbTTb-A-35" value="" style="whiteSpace=wrap;html=1;aspect=fixed;" vertex="1" parent="1">
          <mxGeometry x="240" y="350" width="50" height="50" as="geometry"/>
        </mxCell>
        <mxCell id="BMTH4_5w9j21CkbTTb-A-36" value="" style="endArrow=classic;html=1;entryX=0;entryY=0.5;entryDx=0;entryDy=0;" edge="1" parent="1" target="BMTH4_5w9j21CkbTTb-A-35">
          <mxGeometry width="50" height="50" relative="1" as="geometry">
            <mxPoint x="190" y="375" as="sourcePoint"/>
            <mxPoint x="160" y="420" as="targetPoint"/>
          </mxGeometry>
        </mxCell>
        <mxCell id="BMTH4_5w9j21CkbTTb-A-37" value="&lt;font style=&quot;font-size: 23px&quot;&gt;K&lt;/font&gt;" style="text;html=1;strokeColor=none;fillColor=none;align=center;verticalAlign=middle;whiteSpace=wrap;rounded=0;" vertex="1" parent="1">
          <mxGeometry x="245" y="365" width="40" height="20" as="geometry"/>
        </mxCell>
        <mxCell id="BMTH4_5w9j21CkbTTb-A-38" value="" style="endArrow=none;html=1;" edge="1" parent="1">
          <mxGeometry width="50" height="50" relative="1" as="geometry">
            <mxPoint x="300" y="390" as="sourcePoint"/>
            <mxPoint x="330" y="360" as="targetPoint"/>
          </mxGeometry>
        </mxCell>
        <mxCell id="BMTH4_5w9j21CkbTTb-A-39" value="&lt;font style=&quot;font-size: 23px&quot;&gt;D&lt;/font&gt;" style="text;html=1;strokeColor=none;fillColor=none;align=center;verticalAlign=middle;whiteSpace=wrap;rounded=0;" vertex="1" parent="1">
          <mxGeometry x="120" y="365" width="40" height="20" as="geometry"/>
        </mxCell>
        <mxCell id="BMTH4_5w9j21CkbTTb-A-40" value="" style="whiteSpace=wrap;html=1;aspect=fixed;" vertex="1" parent="1">
          <mxGeometry x="420" y="430" width="50" height="50" as="geometry"/>
        </mxCell>
        <mxCell id="BMTH4_5w9j21CkbTTb-A-41" value="" style="whiteSpace=wrap;html=1;aspect=fixed;" vertex="1" parent="1">
          <mxGeometry x="160" y="430" width="50" height="50" as="geometry"/>
        </mxCell>
        <mxCell id="BMTH4_5w9j21CkbTTb-A-42" value="" style="whiteSpace=wrap;html=1;aspect=fixed;" vertex="1" parent="1">
          <mxGeometry x="240" y="430" width="50" height="50" as="geometry"/>
        </mxCell>
        <mxCell id="BMTH4_5w9j21CkbTTb-A-43" value="" style="endArrow=classic;html=1;entryX=0;entryY=0.5;entryDx=0;entryDy=0;" edge="1" parent="1" target="BMTH4_5w9j21CkbTTb-A-42">
          <mxGeometry width="50" height="50" relative="1" as="geometry">
            <mxPoint x="190" y="455" as="sourcePoint"/>
            <mxPoint x="160" y="500" as="targetPoint"/>
          </mxGeometry>
        </mxCell>
        <mxCell id="BMTH4_5w9j21CkbTTb-A-44" value="" style="whiteSpace=wrap;html=1;aspect=fixed;" vertex="1" parent="1">
          <mxGeometry x="290" y="430" width="50" height="50" as="geometry"/>
        </mxCell>
        <mxCell id="BMTH4_5w9j21CkbTTb-A-45" value="" style="whiteSpace=wrap;html=1;aspect=fixed;" vertex="1" parent="1">
          <mxGeometry x="370" y="430" width="50" height="50" as="geometry"/>
        </mxCell>
        <mxCell id="BMTH4_5w9j21CkbTTb-A-46" value="" style="endArrow=classic;html=1;entryX=0;entryY=0.5;entryDx=0;entryDy=0;" edge="1" parent="1" target="BMTH4_5w9j21CkbTTb-A-45">
          <mxGeometry width="50" height="50" relative="1" as="geometry">
            <mxPoint x="320" y="455" as="sourcePoint"/>
            <mxPoint x="290" y="500" as="targetPoint"/>
          </mxGeometry>
        </mxCell>
        <mxCell id="BMTH4_5w9j21CkbTTb-A-47" value="&lt;font style=&quot;font-size: 23px&quot;&gt;F&lt;/font&gt;" style="text;html=1;strokeColor=none;fillColor=none;align=center;verticalAlign=middle;whiteSpace=wrap;rounded=0;" vertex="1" parent="1">
          <mxGeometry x="120" y="445" width="40" height="20" as="geometry"/>
        </mxCell>
        <mxCell id="BMTH4_5w9j21CkbTTb-A-48" value="&lt;font style=&quot;font-size: 23px&quot;&gt;G&lt;/font&gt;" style="text;html=1;strokeColor=none;fillColor=none;align=center;verticalAlign=middle;whiteSpace=wrap;rounded=0;" vertex="1" parent="1">
          <mxGeometry x="245" y="445" width="40" height="20" as="geometry"/>
        </mxCell>
        <mxCell id="BMTH4_5w9j21CkbTTb-A-49" value="&lt;font style=&quot;font-size: 23px&quot;&gt;K&lt;/font&gt;" style="text;html=1;strokeColor=none;fillColor=none;align=center;verticalAlign=middle;whiteSpace=wrap;rounded=0;" vertex="1" parent="1">
          <mxGeometry x="375" y="445" width="40" height="20" as="geometry"/>
        </mxCell>
        <mxCell id="BMTH4_5w9j21CkbTTb-A-50" value="" style="endArrow=none;html=1;" edge="1" parent="1">
          <mxGeometry width="50" height="50" relative="1" as="geometry">
            <mxPoint x="430" y="470" as="sourcePoint"/>
            <mxPoint x="460" y="440" as="targetPoint"/>
          </mxGeometry>
        </mxCell>
        <mxCell id="BMTH4_5w9j21CkbTTb-A-58" value="" style="whiteSpace=wrap;html=1;aspect=fixed;" vertex="1" parent="1">
          <mxGeometry x="290" y="520" width="50" height="50" as="geometry"/>
        </mxCell>
        <mxCell id="BMTH4_5w9j21CkbTTb-A-59" value="" style="whiteSpace=wrap;html=1;aspect=fixed;" vertex="1" parent="1">
          <mxGeometry x="160" y="520" width="50" height="50" as="geometry"/>
        </mxCell>
        <mxCell id="BMTH4_5w9j21CkbTTb-A-60" value="" style="whiteSpace=wrap;html=1;aspect=fixed;" vertex="1" parent="1">
          <mxGeometry x="240" y="520" width="50" height="50" as="geometry"/>
        </mxCell>
        <mxCell id="BMTH4_5w9j21CkbTTb-A-61" value="" style="endArrow=classic;html=1;entryX=0;entryY=0.5;entryDx=0;entryDy=0;" edge="1" parent="1" target="BMTH4_5w9j21CkbTTb-A-60">
          <mxGeometry width="50" height="50" relative="1" as="geometry">
            <mxPoint x="190" y="545" as="sourcePoint"/>
            <mxPoint x="160" y="590" as="targetPoint"/>
          </mxGeometry>
        </mxCell>
        <mxCell id="BMTH4_5w9j21CkbTTb-A-62" value="&lt;font style=&quot;font-size: 23px&quot;&gt;F&lt;/font&gt;" style="text;html=1;strokeColor=none;fillColor=none;align=center;verticalAlign=middle;whiteSpace=wrap;rounded=0;" vertex="1" parent="1">
          <mxGeometry x="245" y="535" width="40" height="20" as="geometry"/>
        </mxCell>
        <mxCell id="BMTH4_5w9j21CkbTTb-A-63" value="" style="endArrow=none;html=1;" edge="1" parent="1">
          <mxGeometry width="50" height="50" relative="1" as="geometry">
            <mxPoint x="300" y="560" as="sourcePoint"/>
            <mxPoint x="330" y="530" as="targetPoint"/>
          </mxGeometry>
        </mxCell>
        <mxCell id="BMTH4_5w9j21CkbTTb-A-64" value="&lt;font style=&quot;font-size: 23px&quot;&gt;G&lt;/font&gt;" style="text;html=1;strokeColor=none;fillColor=none;align=center;verticalAlign=middle;whiteSpace=wrap;rounded=0;" vertex="1" parent="1">
          <mxGeometry x="120" y="535" width="40" height="20" as="geometry"/>
        </mxCell>
        <mxCell id="BMTH4_5w9j21CkbTTb-A-65" value="" style="whiteSpace=wrap;html=1;aspect=fixed;" vertex="1" parent="1">
          <mxGeometry x="290" y="600" width="50" height="50" as="geometry"/>
        </mxCell>
        <mxCell id="BMTH4_5w9j21CkbTTb-A-66" value="" style="whiteSpace=wrap;html=1;aspect=fixed;" vertex="1" parent="1">
          <mxGeometry x="160" y="600" width="50" height="50" as="geometry"/>
        </mxCell>
        <mxCell id="BMTH4_5w9j21CkbTTb-A-67" value="" style="whiteSpace=wrap;html=1;aspect=fixed;" vertex="1" parent="1">
          <mxGeometry x="240" y="600" width="50" height="50" as="geometry"/>
        </mxCell>
        <mxCell id="BMTH4_5w9j21CkbTTb-A-68" value="" style="endArrow=classic;html=1;entryX=0;entryY=0.5;entryDx=0;entryDy=0;" edge="1" parent="1" target="BMTH4_5w9j21CkbTTb-A-67">
          <mxGeometry width="50" height="50" relative="1" as="geometry">
            <mxPoint x="190" y="625" as="sourcePoint"/>
            <mxPoint x="160" y="670" as="targetPoint"/>
          </mxGeometry>
        </mxCell>
        <mxCell id="BMTH4_5w9j21CkbTTb-A-69" value="&lt;font style=&quot;font-size: 23px&quot;&gt;A&lt;/font&gt;" style="text;html=1;strokeColor=none;fillColor=none;align=center;verticalAlign=middle;whiteSpace=wrap;rounded=0;" vertex="1" parent="1">
          <mxGeometry x="245" y="615" width="40" height="20" as="geometry"/>
        </mxCell>
        <mxCell id="BMTH4_5w9j21CkbTTb-A-70" value="" style="endArrow=none;html=1;" edge="1" parent="1">
          <mxGeometry width="50" height="50" relative="1" as="geometry">
            <mxPoint x="300" y="640" as="sourcePoint"/>
            <mxPoint x="330" y="610" as="targetPoint"/>
          </mxGeometry>
        </mxCell>
        <mxCell id="BMTH4_5w9j21CkbTTb-A-71" value="&lt;font style=&quot;font-size: 23px&quot;&gt;K&lt;/font&gt;" style="text;html=1;strokeColor=none;fillColor=none;align=center;verticalAlign=middle;whiteSpace=wrap;rounded=0;" vertex="1" parent="1">
          <mxGeometry x="120" y="615" width="40" height="20" as="geometry"/>
        </mxCell>
      </root>
    </mxGraphModel>
  </diagram>
</mxfile>
